<?xml version="1.0" encoding="UTF-8" standalone="no"?>
<!DOCTYPE svg PUBLIC "-//W3C//DTD SVG 1.1//EN" "http://www.w3.org/Graphics/SVG/1.1/DTD/svg11.dtd">
<svg width="87" height="26" viewBox="0 0 87 26" version="1.1" xmlns="http://www.w3.org/2000/svg" xmlns:xlink="http://www.w3.org/1999/xlink" xml:space="preserve" xmlns:serif="http://www.serif.com/" style="fill-rule:evenodd;clip-rule:evenodd;stroke-linejoin:round;stroke-miterlimit:2;">
    <path d="M27.634,23.431C27.201,23.431 26.828,23.274 26.513,22.959C26.218,22.645 26.071,22.261 26.071,21.809C26.071,21.357 26.218,20.983 26.513,20.688C26.828,20.374 27.201,20.216 27.634,20.216C28.066,20.216 28.44,20.374 28.754,20.688C29.069,20.983 29.226,21.357 29.226,21.809C29.226,22.261 29.069,22.645 28.754,22.959C28.44,23.274 28.066,23.431 27.634,23.431Z" style="fill:rgb(254,249,163);fill-rule:nonzero;"/>
    <path d="M37.718,11.103C40.706,11.103 42.879,11.644 44.236,12.725C45.612,13.787 46.3,15.281 46.3,17.208C46.3,18.408 46.015,19.479 45.445,20.423C44.894,21.367 44.059,22.114 42.938,22.664C41.817,23.195 40.441,23.461 38.809,23.461C37.334,23.461 35.928,23.225 34.591,22.753C33.274,22.261 32.212,21.612 31.406,20.806L32.438,19.125C33.127,19.833 34.031,20.413 35.152,20.865C36.273,21.298 37.482,21.514 38.779,21.514C40.49,21.514 41.807,21.131 42.731,20.364C43.675,19.597 44.147,18.575 44.147,17.297C44.147,15.881 43.616,14.809 42.554,14.082C41.512,13.354 39.743,12.991 37.246,12.991L32.851,12.991L33.913,2.639L45.209,2.639L45.209,4.526L35.771,4.526L35.063,11.103L37.718,11.103Z" style="fill:rgb(254,249,163);fill-rule:nonzero;"/>
    <path d="M58.374,7.653C59.829,7.653 61.147,7.987 62.326,8.655C63.506,9.304 64.43,10.228 65.099,11.428C65.767,12.627 66.101,13.993 66.101,15.527C66.101,17.061 65.767,18.427 65.099,19.627C64.43,20.826 63.506,21.76 62.326,22.428C61.147,23.097 59.829,23.431 58.374,23.431C57.077,23.431 55.907,23.156 54.865,22.605C53.842,22.055 53.017,21.258 52.387,20.216L52.387,23.284L50.382,23.284L50.382,1.4L52.476,1.4L52.476,10.72C53.125,9.717 53.951,8.96 54.953,8.449C55.976,7.918 57.116,7.653 58.374,7.653ZM58.227,21.573C59.308,21.573 60.291,21.327 61.176,20.836C62.061,20.325 62.749,19.607 63.241,18.683C63.752,17.759 64.007,16.707 64.007,15.527C64.007,14.347 63.752,13.296 63.241,12.371C62.749,11.447 62.061,10.739 61.176,10.248C60.291,9.737 59.308,9.481 58.227,9.481C57.126,9.481 56.133,9.737 55.248,10.248C54.383,10.739 53.695,11.447 53.184,12.371C52.692,13.296 52.446,14.347 52.446,15.527C52.446,16.707 52.692,17.759 53.184,18.683C53.695,19.607 54.383,20.325 55.248,20.836C56.133,21.327 57.126,21.573 58.227,21.573Z" style="fill:rgb(254,249,163);fill-rule:nonzero;"/>
    <path d="M70.37,7.771L72.464,7.771L72.464,23.284L70.37,23.284L70.37,7.771ZM71.432,4.379C70.999,4.379 70.635,4.231 70.341,3.936C70.046,3.642 69.898,3.288 69.898,2.875C69.898,2.482 70.046,2.137 70.341,1.843C70.635,1.548 70.999,1.4 71.432,1.4C71.864,1.4 72.228,1.548 72.523,1.843C72.818,2.118 72.965,2.452 72.965,2.845C72.965,3.278 72.818,3.642 72.523,3.936C72.228,4.231 71.864,4.379 71.432,4.379Z" style="fill:rgb(254,249,163);fill-rule:nonzero;"/>
    <path d="M86.46,22.34C86.067,22.694 85.575,22.969 84.985,23.166C84.415,23.343 83.815,23.431 83.186,23.431C81.731,23.431 80.61,23.038 79.824,22.251C79.037,21.465 78.644,20.354 78.644,18.919L78.644,9.54L75.872,9.54L75.872,7.771L78.644,7.771L78.644,4.379L80.738,4.379L80.738,7.771L85.457,7.771L85.457,9.54L80.738,9.54L80.738,18.801C80.738,19.725 80.964,20.433 81.417,20.924C81.888,21.396 82.557,21.632 83.422,21.632C83.855,21.632 84.268,21.563 84.661,21.426C85.074,21.288 85.428,21.091 85.723,20.836L86.46,22.34Z" style="fill:rgb(254,249,163);fill-rule:nonzero;"/>
    <g transform="matrix(-1,0,0,1,11.2537,12.806)">
        <circle cx="0" cy="0" r="11.254" style="fill:rgb(254,250,158);"/>
    </g>
    <path d="M11.254,17.851C12.48,17.851 13.603,17.414 14.477,16.687L16.589,16.687C15.39,18.333 13.447,19.403 11.254,19.403L11.254,17.851Z" style="fill:rgb(52,56,57);"/>
    <g transform="matrix(-1,0,0,1,15.3284,9.89552)">
        <circle cx="0" cy="0" r="0.97" style="fill:rgb(52,56,57);"/>
    </g>
    <path d="M11.254,1.552C17.469,1.552 22.508,6.591 22.508,12.806C22.508,19.021 17.469,24.06 11.254,24.06L11.254,22.508C16.612,22.508 20.955,18.164 20.955,12.806C20.955,7.448 16.612,3.104 11.254,3.104L11.254,1.552Z" style="fill:rgb(52,56,57);"/>
    <rect x="10.089" y="1.552" width="1.552" height="22.507" style="fill:rgb(52,56,57);"/>
</svg>
